<?xml version="1.0" standalone="no"?>
<!DOCTYPE svg PUBLIC "-//W3C//DTD SVG 20010904//EN"
 "http://www.w3.org/TR/2001/REC-SVG-20010904/DTD/svg10.dtd">
<svg version="1.0" xmlns="http://www.w3.org/2000/svg"
 width="608.000000pt" height="608.000000pt" viewBox="0 0 608.000000 608.000000"
 preserveAspectRatio="xMidYMid meet">

<g transform="translate(0.000000,608.000000) scale(0.100000,-0.100000)"
fill="#000000" stroke="none">
<path d="M760 5710 c-130 -13 -262 -77 -335 -162 -45 -54 -111 -181 -130 -253
-13 -51 -15 -324 -14 -2244 1 -1202 5 -2211 10 -2241 28 -183 202 -353 390
-381 76 -11 4574 -1 4689 11 166 17 310 127 376 288 l24 57 0 2220 c0 2456 4
2291 -66 2433 -52 106 -129 181 -240 234 l-89 43 -2270 1 c-1249 1 -2304 -2
-2345 -6z m4572 -288 c55 -24 124 -99 136 -149 6 -21 13 -163 16 -315 l5 -277
-2459 -1 -2460 0 -3 192 c-3 304 0 362 24 419 24 56 58 88 127 121 l47 23 815
5 c448 3 1466 4 2262 3 1398 -2 1449 -3 1490 -21z m150 -2820 c-3 -2005 4
-1828 -71 -1874 l-36 -23 -2345 -3 c-1736 -2 -2352 1 -2373 9 -15 6 -41 27
-57 46 l-30 34 0 1807 0 1807 2458 0 2457 0 -3 -1803z"/>
<path d="M1434 5145 c-65 -80 -120 -152 -122 -159 -3 -14 154 -146 174 -146
11 0 210 237 236 281 12 19 7 27 -67 95 -44 40 -85 74 -91 74 -6 0 -64 -65
-130 -145z"/>
<path d="M914 5125 c-65 -80 -120 -152 -122 -159 -3 -14 154 -146 174 -146 11
0 210 237 236 281 12 19 7 27 -67 95 -44 40 -85 74 -91 74 -6 0 -64 -65 -130
-145z"/>
<path d="M1944 5125 c-65 -80 -120 -152 -122 -159 -3 -14 154 -146 174 -146
11 0 210 237 236 281 12 19 7 27 -67 95 -44 40 -85 74 -91 74 -6 0 -64 -65
-130 -145z"/>
<path d="M4282 5214 c-57 -29 -112 -119 -112 -184 0 -35 29 -97 57 -122 28
-25 88 -48 125 -48 49 1 112 33 144 75 22 30 29 50 32 99 3 53 0 66 -23 101
-54 82 -150 116 -223 79z"/>
<path d="M4905 5206 c-75 -47 -111 -133 -86 -209 16 -48 99 -124 145 -132 110
-21 205 64 206 185 0 130 -158 223 -265 156z"/>
<path d="M1808 3913 c-45 -51 -43 -3 -46 -1273 l-3 -1205 27 -42 c54 -83 -9
-78 881 -65 433 7 958 12 1165 12 l378 0 44 43 c39 37 44 48 49 97 9 100 8
2072 -1 2227 -9 145 -11 153 -38 187 l-29 36 -1206 0 c-1136 0 -1207 -1 -1221
-17z m2208 -1245 c-3 -563 -9 -1041 -13 -1063 -8 -40 -9 -40 -53 -39 -25 1
-463 4 -973 8 l-928 6 -2 1039 c-1 864 1 1041 12 1055 12 15 97 16 988 16
l975 0 -6 -1022z"/>
<path d="M2835 3461 c-375 -7 -353 -3 -428 -74 -27 -25 -37 -43 -37 -64 0 -35
44 -100 91 -134 l33 -23 399 3 400 3 -23 -32 c-28 -40 -336 -356 -717 -738
-262 -263 -283 -286 -283 -318 0 -19 6 -47 14 -62 20 -38 86 -98 115 -105 31
-8 71 14 106 55 173 208 964 1008 997 1008 2 0 3 -177 4 -393 0 -215 4 -408 8
-427 5 -29 17 -42 72 -78 36 -24 71 -42 77 -40 7 2 41 33 75 71 l63 67 -3 578
-3 578 -27 41 c-17 26 -44 49 -75 64 -46 22 -58 24 -283 25 -129 0 -388 -2
-575 -5z"/>
</g>
</svg>
